{"title":"City Hunter 1993 BRRip 720p x264 AAC - PRiSTiNE [P2PDL]","uid":8655679,"size":690282113,"categoryP":"video","categoryS":"hd___movies","magnet":"?xt=urn:btih:02b1888eca5f861eecbc72aae939f29e992983c3&amp;dn=City+Hunter+1993+BRRip+720p+x264+AAC+-+PRiSTiNE+%5BP2PDL%5D&amp;tr=udp%3A%2F%2Ftracker.openbittorrent.com%3A80&amp;tr=udp%3A%2F%2Fopen.demonii.com%3A1337&amp;tr=udp%3A%2F%2Ftracker.coppersurfer.tk%3A6969&amp;tr=udp%3A%2F%2Fexodus.desync.com%3A6969","seeders":9,"leechers":4,"uploader":"ValidusVyto","files":-1,"time":1373213457,"description":"_______ Visit us at our Semi Public Bittorrent Community ________\n  &lt;a href=&quot;\nhttp://p2pdl.com&quot; rel=&quot;nofollow&quot; target=&quot;_NEW&quot;&gt;\nhttp://p2pdl.com&lt;/a&gt;  _____________________________ &lt;a href=&quot; http://p2pdl.com&quot; rel=&quot;nofollow&quot; target=&quot;_NEW&quot;&gt; http://p2pdl.com&lt;/a&gt;\n\n\nCity Hunter 1993 BRRip 720p x264 AAC - PRiSTiNE\n\n\nOriginal Title: Sing Si Lip Yan\nGenre: Action | Comedy | Romance\nPlot: Extremely silly comedy about a self-indulgent private investigator who winds up\non a cruise ship full of rich patrons, gorgeous women, murderous terrorists, and scarce\nfood. \nDirector: Jing Wong\nStars: Jackie Chan, Joey Wang, Chingmy Yau.\nRated: PG-13 for violence and some sexual content.\n\n\nInfo: &lt;a href=&quot;\nhttp://www.imdb.com/title/tt0103950/&quot; rel=&quot;nofollow&quot; target=&quot;_NEW&quot;&gt;\nhttp://www.imdb.com/title/tt0103950/&lt;/a&gt;\n\n\nFormat                         : MPEG-4\nFile size                      : 650 MiB\nDuration                       : 1h 39mn\nOverall bit rate               : 918 Kbps\nSource                         : 720p.BluRay.x264.DTS-HDWinG\n\nVideo\nFormat                         : AVC\nBit rate                       : 836 Kbps\nWidth                          : 1 280 pixels\nHeight                         : 688 pixels\nDisplay aspect ratio           : 1.85:1\nFrame rate mode                : Constant\nFrame rate                     : 24.000 fps\nStream size                    : 592 MiB (91%)\nWriting library                : x264 core 130 r2273\n\nAudio\nFormat                         : AAC\nBit rate mode                  : Variable\nBit rate                       : 80.0 Kbps\nChannel(s)                     : 2 channels\nChannel positions              : Front: L R\nSampling rate                  : 48.0 KHz\nStream size                    : 56.6 MiB (9%)\nLanguage                       : Chinese(Cantonese)\n\nSubtitle                       : Yes(English)\n &lt;a href=&quot;\nhttp://ultraimg.com/images/oh7n.png&quot; rel=&quot;nofollow&quot; target=&quot;_NEW&quot;&gt;\nhttp://ultraimg.com/images/oh7n.png&lt;/a&gt; &lt;a href=&quot;\nhttp://ultraimg.com/images/grcpo.png&quot; rel=&quot;nofollow&quot; target=&quot;_NEW&quot;&gt;\nhttp://ultraimg.com/images/grcpo.png&lt;/a&gt; &lt;a href=&quot;\nhttp://someimage.com/x82fpGq&quot; rel=&quot;nofollow&quot; target=&quot;_NEW&quot;&gt;\nhttp://someimage.com/x82fpGq&lt;/a&gt; &lt;a href=&quot;\nhttp://someimage.com/IFEGMRM&quot; rel=&quot;nofollow&quot; target=&quot;_NEW&quot;&gt;\nhttp://someimage.com/IFEGMRM&lt;/a&gt; &lt;a href=&quot;\nhttp://someimage.com/5afrW84&quot; rel=&quot;nofollow&quot; target=&quot;_NEW&quot;&gt;\nhttp://someimage.com/5afrW84&lt;/a&gt; &lt;a href=&quot;\nhttp://someimage.com/FCcm7oO&quot; rel=&quot;nofollow&quot; target=&quot;_NEW&quot;&gt;\nhttp://someimage.com/FCcm7oO&lt;/a&gt; &lt;a href=&quot;\nhttp://someimage.com/o9WL7PR&quot; rel=&quot;nofollow&quot; target=&quot;_NEW&quot;&gt;\nhttp://someimage.com/o9WL7PR&lt;/a&gt; &lt;a href=&quot;\nhttp://someimage.com/ml8VRCs&quot; rel=&quot;nofollow&quot; target=&quot;_NEW&quot;&gt;\nhttp://someimage.com/ml8VRCs&lt;/a&gt; &lt;a href=&quot;\nhttp://someimage.com/tj4okaG&quot; rel=&quot;nofollow&quot; target=&quot;_NEW&quot;&gt;\nhttp://someimage.com/tj4okaG&lt;/a&gt; &lt;a href=&quot;\nhttp://someimage.com/68BCBDP&quot; rel=&quot;nofollow&quot; target=&quot;_NEW&quot;&gt;\nhttp://someimage.com/68BCBDP&lt;/a&gt;\n\n\n----------------------------------------------------------------------------------------------------\n\n\nEncoded using revolutionary 10bit encoding, which enables us to provide you more crispier \nand sharper images at small sizes, just make sure you follow our instructions without a fault.\nRecommend to you to use latest version of VLC player. Install K-Lite Codec Pack or shark007 codecs\nin case of any kind of problem in playback (For non-VLC Media Player users). Alternatively, install\nCore AVC codecs, the fastest decoder that there is coupled with Community Center Codec Pack and play\non Windows Media Player Classic. Check sample to be sure.\nEnjoy!\n\nEncoder Notes:Looking For Early Access To Anything You Can Provide DVDScr, R5, DVDR, BluRay, Direct\nAudio, Music Releases and Seedboxes. We require dedicated servers, so as to do more \nand fast releases of movies.\nIf You Got anything to offer please contact us at &quot;&lt;a class=&quot;__cf_email__&quot; href=&quot;/cdn-cgi/l/email-protection&quot; data-cfemail=&quot;89f9fbeec9e1fcfae1a7eae6e4&quot;&gt;[email&amp;#160;protected]&lt;/a&gt;&lt;script cf-hash='f9e31' type=&quot;text/javascript&quot;&gt;\n/* &lt;![CDATA[ */!function(){try{var t=&quot;currentScript&quot;in document?document.currentScript:function(){for(var t=document.getElementsByTagName(&quot;script&quot;),e=t.length;e--;)if(t[e].getAttribute(&quot;cf-hash&quot;))return t[e]}();if(t&amp;&amp;t.previousSibling){var e,r,n,i,c=t.previousSibling,a=c.getAttribute(&quot;data-cfemail&quot;);if(a){for(e=&quot;&quot;,r=parseInt(a.substr(0,2),16),n=2;a.length-n;n+=2)i=parseInt(a.substr(n,2),16)^r,e+=String.fromCharCode(i);e=document.createTextNode(e),c.parentNode.replaceChild(e,c)}}}catch(u){}}();/* ]]&gt; */&lt;/script&gt;&quot;.\n\nFace book Fan Page:   &lt;a href=&quot;\nhttp://fbl.me/BC&quot; rel=&quot;nofollow&quot; target=&quot;_NEW&quot;&gt;\nhttp://fbl.me/BC&lt;/a&gt;","torrent":{"xt":"urn:btih:02b1888eca5f861eecbc72aae939f29e992983c3","amp;dn":"City+Hunter+1993+BRRip+720p+x264+AAC+-+PRiSTiNE+%5BP2PDL%5D","amp;tr":["udp%3A%2F%2Ftracker.openbittorrent.com%3A80","udp%3A%2F%2Fopen.demonii.com%3A1337","udp%3A%2F%2Ftracker.coppersurfer.tk%3A6969","udp%3A%2F%2Fexodus.desync.com%3A6969"],"infoHash":"02b1888eca5f861eecbc72aae939f29e992983c3","infoHashBuffer":{"type":"Buffer","data":[2,177,136,142,202,95,134,30,236,188,114,170,233,57,242,158,153,41,131,195]},"announce":[],"urlList":[]}}